HIERARCHY
ROOT hip
{
	OFFSET 0.000000 0.000000 0.000000 
	CHANNELS 6 Xposition Yposition Zposition Xrotation Zrotation Yrotation
	JOINT abdomen
	{
		OFFSET 0.000000 3.402643 0.000000 
		CHANNELS 3 Xrotation Zrotation Yrotation
		JOINT chest
		{
			OFFSET 0.000000 8.438565 -0.680529 
			CHANNELS 3 Xrotation Zrotation Yrotation
			JOINT neck
			{
				OFFSET 0.000000 10.207942 -0.272212 
				CHANNELS 3 Xrotation Zrotation Yrotation
				JOINT head
				{
					OFFSET 0.000000 3.130431 0.000000 
					CHANNELS 3 Xrotation Zrotation Yrotation
					End Site
					{
						OFFSET 0.000000 3.130435 0.000000 
					}
				}
			}
			JOINT lCollar
			{
				OFFSET 3.470700 6.669187 -0.816635 
				CHANNELS 3 Yrotation Zrotation Xrotation
				JOINT lShldr
				{
					OFFSET 3.198488 0.000000 0.000000 
					CHANNELS 3 Zrotation Yrotation Xrotation
					JOINT lForeArm
					{
						OFFSET 10.139888 0.000000 0.000000 
						CHANNELS 3 Yrotation Zrotation Xrotation
						JOINT lHand
						{
							OFFSET 8.370511 0.000000 0.000000 
							CHANNELS 3 Zrotation Yrotation Xrotation
							End Site
							{
								OFFSET 4.083176 0.000000 0.000000 
							}
						}
					}
				}
			}
			JOINT rCollar
			{
				OFFSET -3.470700 6.669187 -0.816635 
				CHANNELS 3 Yrotation Zrotation Xrotation
				JOINT rShldr
				{
					OFFSET -3.198488 0.000000 0.000000 
					CHANNELS 3 Zrotation Yrotation Xrotation
					JOINT rForeArm
					{
						OFFSET -10.139888 0.000000 0.000000 
						CHANNELS 3 Yrotation Zrotation Xrotation
						JOINT rHand
						{
							OFFSET -8.370511 0.000000 0.000000 
							CHANNELS 3 Zrotation Yrotation Xrotation
							End Site
							{
								OFFSET -4.083176 0.000000 0.000000 
							}
						}
					}
				}
			}
		}
	}
	JOINT lThigh
	{
		OFFSET 5.308129 -1.633274 1.361059 
		CHANNELS 3 Xrotation Zrotation Yrotation
		JOINT lShin
		{
			OFFSET -2.041588 -20.007561 0.000000 
			CHANNELS 3 Xrotation Zrotation Yrotation
			JOINT lFoot
			{
				OFFSET 0.000000 -19.190928 -1.224953 
				CHANNELS 3 Xrotation Yrotation Zrotation
				End Site
				{
					OFFSET 0.000000 -2.449906 4.627600 
				}
			}
		}
	}
	JOINT rThigh
	{
		OFFSET -5.308129 -1.633274 1.361059 
		CHANNELS 3 Xrotation Zrotation Yrotation
		JOINT rShin
		{
			OFFSET 2.041588 -20.007561 0.000000 
			CHANNELS 3 Xrotation Zrotation Yrotation
			JOINT rFoot
			{
				OFFSET 0.000000 -19.190928 -1.224953 
				CHANNELS 3 Xrotation Yrotation Zrotation
				End Site
				{
					OFFSET 0.000000 -2.449906 4.627600 
				}
			}
		}
	}
}
MOTION
Frames: 6
Frame Time: 0.033333
-43.645908 47.973934 45.768528 -3.411883 2.233192 6.147409 0.000000 0.000000 0.000000 34.814205 4.033157 0.274134 29.182632 5.749052 12.967422 9.325797 -23.769703 20.314453 -6.367283 5.681311 24.996998 -61.355515 -1.032768 26.900351 -59.429306 -11.562743 -17.204836 -2.715159 13.901294 -3.905540 -2.010235 3.298057 24.994179 60.887825 -0.734368 35.389446 62.925701 8.903204 -16.936701 -3.510479 -22.302937 -3.192435 -27.033297 5.193263 0.013977 7.466271 -4.444133 23.194710 8.459510 0.123723 1.418410 -21.418093 -6.412807 -8.272152 52.776089 3.562672 -7.641043 -27.615267 -0.192050 0.743012 
-43.720215 48.451122 44.370033 -3.039239 3.055149 6.708911 0.000000 0.000000 0.000000 34.455772 3.876952 0.039633 29.602798 5.583081 13.150066 9.767251 -23.157295 20.481598 -5.584898 4.944277 24.994267 -61.970654 -1.086154 25.657043 -57.281967 -11.037090 -10.931735 -3.883798 14.250826 -4.026081 -2.711621 3.531920 24.997705 60.437721 -0.778619 35.944450 62.320950 9.110443 -17.001289 -1.824037 -21.803915 -3.484059 -27.040363 4.931482 1.495548 12.116613 -5.476082 26.453104 7.323338 0.220113 3.096156 -22.623856 -7.108228 -7.990807 50.154732 3.583611 -9.168242 -24.149141 -0.162319 0.599954 
-43.780373 48.925930 43.079826 -2.622603 2.974467 7.197529 0.000000 0.000000 0.000000 33.932419 4.208831 0.489831 30.087725 5.771551 13.625095 9.589191 -23.523609 20.608301 -5.059599 4.530547 24.995716 -61.947151 -1.445756 25.004587 -55.320629 -11.033597 -7.695326 -4.931327 13.836732 -4.097537 -2.208483 4.908447 24.990337 60.107201 -1.869049 35.037399 61.055485 9.169088 -17.946608 -2.154639 -18.024618 -3.446014 -27.079435 5.419993 2.506088 16.489107 -5.731010 25.502245 4.803750 0.130841 2.521096 -23.266916 -6.970738 -7.712088 46.738819 4.167137 -10.008995 -20.653868 0.011807 -0.284600 
-43.787392 49.427032 41.831474 -2.554127 2.636093 7.068308 0.000000 0.000000 0.000000 33.969986 4.179043 1.008878 30.001511 5.789557 14.421677 11.149815 -23.510984 20.357838 -4.177037 4.693732 24.997622 -61.818081 -2.658149 24.696983 -53.695042 -11.191100 -6.165812 -5.000607 12.688759 -4.042624 -2.065180 5.621258 24.990185 59.145626 -0.765909 35.932362 60.481468 10.115691 -19.359447 -3.630654 -17.537451 -3.260441 -27.062658 6.208949 3.248877 21.595327 -5.000624 25.260977 3.287976 0.052606 1.630028 -23.153364 -6.445202 -7.201624 42.601978 4.656547 -10.413694 -16.917015 0.164808 -1.213897 
-43.627159 49.816559 40.618462 -2.536262 2.763005 6.912707 0.000000 0.000000 0.000000 33.939140 4.061240 1.429808 29.893604 5.660869 15.007394 12.620350 -24.375154 20.336353 -3.857400 4.562128 24.995686 -62.281700 -2.916901 24.399076 -53.123283 -10.922163 -4.561823 -5.450228 12.877478 -4.092218 -1.915361 5.227661 24.992851 59.285019 -0.600174 36.353622 59.762760 10.656569 -18.853344 -4.223238 -17.284533 -3.191940 -26.774609 6.454489 3.696857 27.934135 -4.222394 22.337135 1.095620 0.028944 2.424989 -23.121548 -6.707985 -6.650471 38.946407 4.918803 -10.499386 -13.332178 0.195200 -1.789333 
-43.512722 50.107948 39.295242 -2.272614 2.472621 6.823091 0.000000 0.000000 0.000000 33.704731 3.846058 1.654533 29.987501 5.439178 15.550551 12.783244 -24.481512 20.244411 -2.861418 4.691319 24.990240 -61.854439 -2.949146 24.622797 -53.188572 -10.856984 -3.688469 -5.375399 12.784334 -4.076495 -1.356047 6.133115 24.997990 58.647488 -1.155513 36.807373 60.156918 10.955961 -18.539991 -5.218078 -17.217661 -3.077888 -25.605324 7.177868 3.991101 32.748535 -3.176741 19.769272 -1.958341 -0.007754 0.659205 -23.328079 -6.444843 -6.097253 35.023354 5.134455 -10.850096 -9.568559 0.213395 -2.432879 
